<svg width="40" height="40" viewBox="0 0 40 40" fill="none" xmlns="http://www.w3.org/2000/svg">
<rect width="40" height="40" rx="20" fill="#03C75A"/>
<path fill-rule="evenodd" clip-rule="evenodd" d="M29.5498 16.2885C30.4032 16.2885 31.0322 16.6109 31.4653 17.1609V16.4781H33.3808V22.841C33.3808 25.0916 31.6613 26.043 29.9164 26.043V24.2761H29.9828C30.8995 24.2761 31.4653 23.7924 31.4653 22.841V22.2246C31.0322 22.7746 30.4032 23.097 29.5498 23.097C27.688 23.097 26.3225 21.5419 26.3225 19.6928C26.3225 17.8436 27.688 16.2885 29.5498 16.2885ZM8.96607 14.2434V17.1072C9.39912 16.5983 10.0408 16.2885 10.9195 16.2885C12.639 16.2885 14.0551 17.831 14.0551 19.8255C14.0551 21.82 12.639 23.3626 10.9195 23.3626C10.0408 23.3626 9.39912 23.0559 8.96607 22.5439V23.1729H7V14.2434H8.96607ZM21.9226 16.2885C23.8507 16.2885 25.3964 17.831 25.3964 19.8255C25.3964 21.82 23.8475 23.3626 21.9226 23.3626C19.9976 23.3626 18.4456 21.82 18.4456 19.8255C18.4456 17.831 19.9944 16.2885 21.9226 16.2885ZM14.2353 14C15.8315 14.158 17.2792 15.1442 17.2792 17.2273V23.1792H15.3131V17.2241C15.3131 16.4181 14.9117 15.9408 14.2353 15.808V14ZM10.5276 18.0554C9.54768 18.0554 8.83964 18.7382 8.83964 19.8255C8.83964 20.9129 9.55084 21.5956 10.5276 21.5956C11.5074 21.5956 12.2155 20.9129 12.2155 19.8255C12.2155 18.7382 11.5074 18.0554 10.5276 18.0554ZM21.9226 18.1155C20.9996 18.1155 20.2915 18.7982 20.2915 19.8255C20.2915 20.8528 20.9996 21.5356 21.9226 21.5356C22.8455 21.5356 23.5536 20.856 23.5536 19.8255C23.5536 18.7982 22.8455 18.1155 21.9226 18.1155ZM29.8785 18.0112C28.8702 18.0112 28.1622 18.6939 28.1622 19.6928C28.1622 20.6916 28.8734 21.3744 29.8785 21.3744C30.8868 21.3744 31.5949 20.6916 31.5949 19.6928C31.5949 18.6939 30.8837 18.0112 29.8785 18.0112Z" fill="white"/>
</svg>
