<svg width="40" height="40" viewBox="0 0 40 40" fill="none" xmlns="http://www.w3.org/2000/svg">
<g clip-path="url(#clip0_51_320)">
<path d="M20.0065 0C11.6567 0 9.21471 0.00861611 8.74003 0.0480041C7.02651 0.190478 5.96025 0.460347 4.79862 1.03886C3.9034 1.48351 3.19738 1.99894 2.50059 2.72146C1.2316 4.03911 0.462511 5.66017 0.184102 7.5871C0.048743 8.52257 0.00936576 8.71335 0.00136726 13.4916C-0.00170908 15.0844 0.00136726 17.1805 0.00136726 19.9922C0.00136726 28.3375 0.0105963 30.7777 0.0505888 31.2516C0.189024 32.9194 0.450514 33.9687 1.00426 35.1165C2.06252 37.3136 4.08368 38.963 6.46477 39.5784C7.28923 39.7908 8.19983 39.9077 9.36884 39.9631C9.86413 39.9846 14.9124 40 19.9638 40C25.0151 40 30.0665 39.9938 30.5495 39.9692C31.9031 39.9055 32.6891 39.8 33.5581 39.5753C34.7388 39.2725 35.8391 38.7155 36.7822 37.9432C37.7254 37.171 38.4886 36.2021 39.0187 35.1042C39.5616 33.9841 39.837 32.8948 39.9616 31.314C39.9886 30.9694 40 25.4745 40 19.9869C40 14.4985 39.9877 9.01369 39.9606 8.66904C39.8345 7.06275 39.5592 5.98266 38.9986 4.84102C38.5387 3.90648 38.0281 3.20858 37.2867 2.49498C35.9638 1.23087 34.3457 0.461578 32.4171 0.1834C31.4828 0.0483118 31.2967 0.0083084 26.5161 0H20.0065Z" fill="url(#paint0_radial_51_320)"/>
<path d="M20.0065 0C11.6567 0 9.21471 0.00861377 8.74003 0.047991C7.02651 0.190426 5.96025 0.460221 4.79862 1.03857C3.9034 1.48311 3.19738 1.99839 2.50059 2.72072C1.2316 4.03801 0.462511 5.65863 0.184102 7.58504C0.048743 8.52024 0.00936576 8.71098 0.00136726 13.4879C-0.00170908 15.0802 0.00136726 17.1759 0.00136726 19.9867C0.00136726 28.3298 0.0105963 30.7693 0.0505888 31.243C0.189024 32.9104 0.450514 33.9595 1.00426 35.1069C2.06252 37.3035 4.08368 38.9524 6.46477 39.5676C7.28923 39.7799 8.19983 39.8968 9.36884 39.9522C9.86413 39.9737 14.9124 39.9891 19.9638 39.9891C25.0151 39.9891 30.0665 39.9829 30.5495 39.9583C31.9031 39.8947 32.6891 39.7891 33.5581 39.5646C34.7388 39.2618 35.8391 38.7049 36.7822 37.9329C37.7254 37.1608 38.4886 36.1922 39.0187 35.0946C39.5616 33.9748 39.837 32.8858 39.9616 31.3055C39.9886 30.9609 40 25.4675 40 19.9815C40 14.4945 39.9877 9.01123 39.9606 8.66668C39.8345 7.06083 39.5592 5.98103 38.9987 4.83971C38.5387 3.90542 38.0281 3.2077 37.2867 2.4943C35.9638 1.23054 34.3457 0.461452 32.4171 0.18335C31.4828 0.0482986 31.2967 0.00830613 26.5161 0H20.0065Z" fill="url(#paint1_radial_51_320)"/>
<path d="M20.0009 8C16.7418 8 16.3328 8.01425 15.0528 8.0725C13.7753 8.131 12.9033 8.33325 12.1403 8.63001C11.351 8.93651 10.6815 9.34651 10.0145 10.0138C9.34701 10.6808 8.93701 11.3503 8.62951 12.1393C8.332 12.9026 8.1295 13.7748 8.072 15.0518C8.015 16.3318 8 16.7411 8 20.0001C8 23.2592 8.0145 23.6669 8.0725 24.9469C8.13125 26.2244 8.3335 27.0964 8.63001 27.8595C8.93676 28.6487 9.34676 29.3182 10.014 29.9852C10.6808 30.6527 11.3503 31.0637 12.139 31.3702C12.9026 31.667 13.7748 31.8693 15.0521 31.9278C16.3321 31.986 16.7408 32.0003 19.9996 32.0003C23.2589 32.0003 23.6667 31.986 24.9467 31.9278C26.2242 31.8693 27.0972 31.667 27.8607 31.3702C28.6497 31.0637 29.3182 30.6527 29.985 29.9852C30.6525 29.3182 31.0625 28.6487 31.37 27.8597C31.665 27.0965 31.8675 26.2242 31.9275 24.9472C31.985 23.6672 32 23.2592 32 20.0001C32 16.7411 31.985 16.3321 31.9275 15.0521C31.8675 13.7746 31.665 12.9026 31.37 12.1395C31.0625 11.3503 30.6525 10.6808 29.985 10.0138C29.3175 9.34626 28.65 8.93626 27.86 8.63001C27.0949 8.33325 26.2224 8.131 24.9449 8.0725C23.6649 8.01425 23.2574 8 19.9974 8H20.0009ZM18.9244 10.1625C19.2439 10.162 19.6004 10.1625 20.0009 10.1625C23.2049 10.1625 23.5847 10.174 24.8499 10.2315C26.0199 10.285 26.6549 10.4805 27.0779 10.6448C27.638 10.8623 28.0372 11.1223 28.457 11.5423C28.877 11.9623 29.137 12.3623 29.355 12.9223C29.5192 13.3448 29.715 13.9798 29.7682 15.1498C29.8257 16.4148 29.8382 16.7948 29.8382 19.9974C29.8382 23.1999 29.8257 23.5799 29.7682 24.8449C29.7147 26.0149 29.5192 26.6499 29.355 27.0725C29.1375 27.6325 28.877 28.0312 28.457 28.451C28.037 28.871 27.6382 29.131 27.0779 29.3485C26.6554 29.5135 26.0199 29.7085 24.8499 29.762C23.5849 29.8195 23.2049 29.832 20.0009 29.832C16.7966 29.832 16.4168 29.8195 15.1518 29.762C13.9818 29.708 13.3468 29.5125 12.9236 29.3482C12.3635 29.1307 11.9635 28.8707 11.5435 28.4507C11.1235 28.0307 10.8635 27.6317 10.6455 27.0715C10.4813 26.6489 10.2855 26.0139 10.2323 24.8439C10.1748 23.5789 10.1633 23.1989 10.1633 19.9944C10.1633 16.7898 10.1748 16.4118 10.2323 15.1468C10.2858 13.9768 10.4813 13.3418 10.6455 12.9188C10.863 12.3588 11.1235 11.9588 11.5435 11.5388C11.9635 11.1188 12.3635 10.8588 12.9236 10.6408C13.3466 10.4758 13.9818 10.2808 15.1518 10.227C16.2588 10.177 16.6878 10.162 18.9244 10.1595V10.1625ZM26.4064 12.155C26.1216 12.155 25.8432 12.2395 25.6064 12.3978C25.3695 12.556 25.185 12.7809 25.076 13.0441C24.967 13.3073 24.9385 13.5968 24.9941 13.8762C25.0497 14.1555 25.1869 14.4121 25.3884 14.6135C25.5898 14.8148 25.8464 14.952 26.1258 15.0075C26.4052 15.063 26.6947 15.0344 26.9579 14.9253C27.221 14.8162 27.4458 14.6316 27.604 14.3947C27.7622 14.1578 27.8466 13.8794 27.8465 13.5946C27.8465 12.7996 27.2014 12.1545 26.4064 12.1545V12.155ZM20.0009 13.8376C16.5976 13.8376 13.8383 16.5968 13.8383 20.0001C13.8383 23.4034 16.5976 26.1614 20.0009 26.1614C23.4042 26.1614 26.1627 23.4034 26.1627 20.0001C26.1627 16.5968 23.4039 13.8376 20.0006 13.8376H20.0009ZM20.0009 16.0001C22.2099 16.0001 24.0009 17.7909 24.0009 20.0001C24.0009 22.2091 22.2099 24.0002 20.0009 24.0002C17.7916 24.0002 16.0008 22.2091 16.0008 20.0001C16.0008 17.7909 17.7916 16.0001 20.0009 16.0001Z" fill="white"/>
</g>
<defs>
<radialGradient id="paint0_radial_51_320" cx="0" cy="0" r="1" gradientUnits="userSpaceOnUse" gradientTransform="translate(10.6251 43.0808) rotate(-90) scale(39.643 36.8711)">
<stop stop-color="#FFDD55"/>
<stop offset="0.1" stop-color="#FFDD55"/>
<stop offset="0.5" stop-color="#FF543E"/>
<stop offset="1" stop-color="#C837AB"/>
</radialGradient>
<radialGradient id="paint1_radial_51_320" cx="0" cy="0" r="1" gradientUnits="userSpaceOnUse" gradientTransform="translate(-6.70021 2.88075) rotate(78.6776) scale(17.7159 73.0442)">
<stop stop-color="#3771C8"/>
<stop offset="0.128" stop-color="#3771C8"/>
<stop offset="1" stop-color="#6600FF" stop-opacity="0"/>
</radialGradient>
<clipPath id="clip0_51_320">
<rect width="40" height="40" rx="20" fill="white"/>
</clipPath>
</defs>
</svg>
