<svg width="40" height="40" viewBox="0 0 40 40" fill="none" xmlns="http://www.w3.org/2000/svg">
<path d="M20 40C31.0444 40 40 31.0444 40 20C40 8.95556 31.0444 0 20 0C8.95556 0 0 8.95556 0 20C0 31.0444 8.95556 40 20 40Z" fill="#A50034"/>
<path d="M19.2 11.2222V28.7555H24.7777V27.1999H20.7777V11.2222H19.2Z" fill="white"/>
<path d="M13.6222 16.0222C14.9555 16.0222 16.0222 14.9555 16.0222 13.6222C16.0222 12.2888 14.9555 11.2222 13.6222 11.2222C12.3111 11.2222 11.2222 12.2888 11.2222 13.6222C11.2222 14.9333 12.2888 16.0222 13.6222 16.0222Z" fill="white"/>
<path d="M20.7777 3.2666C20.5777 3.2666 20.1777 3.2666 19.9999 3.2666C10.7777 3.2666 3.2666 10.7777 3.2666 19.9999C3.2666 24.4666 4.99993 28.6666 8.15549 31.8222C11.3333 34.9999 15.5333 36.7333 19.9999 36.7333C24.4666 36.7333 28.6666 34.9999 31.8444 31.8222C34.9999 28.6666 36.7333 24.4666 36.7333 19.9999V19.2444H36.0666H24.7999V20.7999H35.1555V21.0222C34.6222 28.911 28.0444 35.1777 20.0222 35.1777C15.9777 35.1777 12.1555 33.5999 9.28882 30.7333C6.42216 27.8666 4.84438 24.0666 4.84438 19.9999C4.84438 15.9555 6.42216 12.1333 9.28882 9.2666C12.1555 6.39994 15.9555 4.82216 20.0222 4.82216C20.1999 4.82216 20.6222 4.82216 20.8222 4.82216V3.2666H20.7777Z" fill="white"/>
</svg>
