<svg width="40" height="40" viewBox="0 0 40 40" fill="none" xmlns="http://www.w3.org/2000/svg">
<rect width="40" height="40" rx="20" fill="#F70000"/>
<path d="M30.9042 14.5042C30.6417 13.5167 29.8708 12.7417 28.8917 12.4792C27.1167 12 20 12 20 12C20 12 12.8833 12 11.1083 12.4792C10.1292 12.7417 9.35835 13.5167 9.09585 14.5042C8.62085 16.2917 8.62085 20.0167 8.62085 20.0167C8.62085 20.0167 8.62085 23.7417 9.09585 25.5292C9.35835 26.5167 10.1292 27.2583 11.1083 27.5208C12.8833 28 20 28 20 28C20 28 27.1167 28 28.8917 27.5208C29.8708 27.2583 30.6417 26.5125 30.9042 25.5292C31.3792 23.7417 31.3792 20.0167 31.3792 20.0167C31.3792 20.0167 31.3792 16.2917 30.9042 14.5042ZM17.675 23.4V16.6333L23.6208 20.0167L17.675 23.4Z" fill="white"/>
</svg>
