<svg width="60" height="54" viewBox="0 0 60 54" fill="none" xmlns="http://www.w3.org/2000/svg">
<rect x="22" y="17" width="22" height="20" fill="white"/>
<path d="M57.2601 12.9274C56.6038 10.4587 54.6768 8.52116 52.2288 7.86491C47.7913 6.66699 29.9997 6.66699 29.9997 6.66699C29.9997 6.66699 12.208 6.66699 7.77051 7.86491C5.32259 8.52116 3.39551 10.4587 2.73926 12.9274C1.55176 17.3962 1.55176 26.7087 1.55176 26.7087C1.55176 26.7087 1.55176 36.0212 2.73926 40.4899C3.39551 42.9587 5.32259 44.8128 7.77051 45.4691C12.208 46.667 29.9997 46.667 29.9997 46.667C29.9997 46.667 47.7913 46.667 52.2288 45.4691C54.6768 44.8128 56.6038 42.9482 57.2601 40.4899C58.4476 36.0212 58.4476 26.7087 58.4476 26.7087C58.4476 26.7087 58.4476 17.3962 57.2601 12.9274ZM24.1872 35.167V18.2503L39.0518 26.7087L24.1872 35.167Z" fill="#F70000"/>
</svg>
