<svg width="256" height="256" viewBox="0 0 256 256" fill="none" xmlns="http://www.w3.org/2000/svg">
<rect width="256" height="256" rx="51.2" fill="#D20066"/>
<path d="M161.317 181.958C156.934 177.665 151.031 174.982 144.412 174.982C138.688 174.982 133.501 176.949 129.386 180.259C133.501 179.096 139.851 177.575 144.86 177.754C150.942 177.844 156.398 179.722 161.317 181.958Z" fill="white"/>
<path d="M163.463 185.267C161.943 183.836 152.551 179.811 144.144 179.811C137.436 179.811 128.313 181.868 126.255 183.478C124.288 184.999 122.678 186.341 120.889 187.772C126.792 188.577 133.947 190.097 143.428 190.544C154.43 191.081 162.211 190.276 168.204 189.829C166.951 188.487 164.984 186.788 163.463 185.267Z" fill="white"/>
<path d="M146.022 121.048C133.143 120.69 121.962 127.041 117.133 136.343C124.735 139.652 134.574 141.888 145.307 142.156C156.129 142.425 166.057 140.815 173.928 137.953C169.724 128.382 158.902 121.495 146.022 121.048Z" fill="white"/>
<path d="M154.877 120.512C154.251 116.397 150.942 113.177 146.827 113.088C142.802 112.999 139.314 115.861 138.42 119.796C140.924 119.349 143.518 119.081 146.201 119.17C149.153 119.259 152.104 119.707 154.877 120.512Z" fill="white"/>
<path d="M151.567 113.267C150.584 110.315 149.331 107.453 147.811 105.306C146.111 107.274 144.323 109.778 142.981 112.462C144.144 111.836 145.485 111.567 146.827 111.567C148.616 111.567 150.226 112.193 151.567 113.267Z" fill="white"/>
<path d="M44.4163 101.013C48.62 101.639 59.8002 101.729 73.7531 119.617C75.9892 122.479 87.706 142.246 93.0725 148.238C101.569 157.809 111.766 169.436 142.802 170.241C153.803 170.509 162.837 168.989 175.717 162.46C181.441 159.598 188.328 154.052 192.621 150.653C202.102 143.23 216.323 133.123 228.398 141.262C234.122 145.108 234.659 154.768 230.187 159.955C218.023 174.266 197.719 150.027 186.807 165.59C192.621 157.361 205.68 167.111 212.388 169.168C222.316 172.119 237.879 167.558 239.846 152.174C241.009 143.23 235.374 136.611 229.829 133.57C219.364 127.756 204.696 131.781 193.963 136.074C167.13 146.897 161.853 147.612 143.428 147.076C124.467 146.539 114.27 141.083 107.383 137.148C102.553 134.464 96.8291 130.261 92.2675 126.772C88.0638 123.553 84.1283 119.975 80.5507 116.039C74.3792 109.421 62.6624 98.9561 44.4163 101.013Z" fill="white"/>
<path d="M22.9504 86.613C25.0076 88.6702 28.3169 90.9957 39.2288 98.3299C35.6511 95.915 31.3579 90.5485 35.3828 85.3608C38.245 81.7832 42.8959 76.7745 42.8959 72.2129C42.8959 69.9769 41.286 65.7731 36.5456 65.952C31.0002 66.0415 29.748 70.9607 29.748 70.9607C29.748 70.9607 28.138 64.4315 21.1616 66.1309C16.6895 67.2042 15.4373 71.7657 15.6162 74.7173C16.0634 78.9211 17.6734 81.5149 22.9504 86.613Z" fill="white"/>
</svg>
