<svg width="137" height="40" viewBox="0 0 137 40" fill="none" xmlns="http://www.w3.org/2000/svg">
<g clip-path="url(#clip0_51_278)">
<path d="M87.2223 9.48722V12.9188H91.9659V13.8069C91.9659 17.3596 90.5327 19.2369 86.6772 20.448L88.1306 23.7383C90.7951 23.1125 93.3991 21.5582 94.4689 19.4186C95.6195 21.5582 98.1225 23.052 100.444 23.597L102.301 19.8425C98.9299 19.1158 96.5077 17.2789 96.5077 13.7868V12.9188H101.171V9.48722H87.2223ZM108.841 9.02295H104.481V13.9684H100.383V17.5413H104.481V26.5845H108.316C108.619 25.3531 108.841 23.2942 108.841 21.8206V9.02295ZM109.285 29.8344H96.4471C96.1039 29.8344 96.003 29.7536 96.003 29.3903V24.3035H91.6429V31.1666C91.6429 32.6603 92.3898 33.3668 93.8835 33.3668H109.265V29.8344H109.285ZM111.768 9.46703V12.8784H116.713V14.5336C116.713 18.8937 115.825 21.6188 111.324 23.597L113.02 26.6248C115.603 25.6559 118.026 23.8392 119.156 21.5179C120.286 23.6979 122.628 25.5146 124.889 26.3826L126.927 22.8299C122.547 21.1949 121.033 18.6313 121.033 14.4933V12.8784H125.858V9.46703H111.768ZM137 15.4824H132.68V9.02295H128.502V33.3467H132.156C132.499 31.9135 132.68 29.4508 132.68 27.513V18.9745H137V15.4824Z" fill="#6B6B6B"/>
<path d="M51.1505 33.0035H61.102V28.4214H49.8586V9.52759H44.4489V33.0035H51.1505Z" fill="#6B6B6B"/>
<path d="M73.0317 24.0412H77.4524V28.1389C76.645 28.4417 75.0503 28.7646 73.5364 28.7646C68.6514 28.7646 67.0366 26.2818 67.0366 21.2556C67.0366 16.4514 68.5909 13.6254 73.4758 13.6254C76.1807 13.6254 77.735 14.4732 79.0269 16.1082L82.3979 13.0198C80.3389 10.0727 76.7459 9.18457 73.3749 9.18457C65.7851 9.18457 61.7883 13.3226 61.7883 21.2354C61.7883 29.1078 65.3814 33.367 73.3345 33.367C76.9679 33.367 80.5408 32.4384 82.4786 31.086V19.6609H73.0721V24.0412H73.0317Z" fill="#6B6B6B"/>
<path d="M18.1671 39.4225C28.1994 39.4225 36.3342 31.2877 36.3342 21.2555C36.3342 11.2232 28.1994 3.08838 18.1671 3.08838C8.13482 3.08838 0 11.2232 0 21.2555C0 31.2877 8.13482 39.4225 18.1671 39.4225Z" fill="#A50034"/>
<path d="M17.4404 13.2822V29.2087H22.507V27.7957H18.8736V13.2822H17.4404Z" fill="white"/>
<path d="M12.3738 17.6423C13.5849 17.6423 14.5538 16.6734 14.5538 15.4623C14.5538 14.2511 13.5849 13.2822 12.3738 13.2822C11.1828 13.2822 10.1937 14.2511 10.1937 15.4623C10.1937 16.6532 11.1626 17.6423 12.3738 17.6423Z" fill="white"/>
<path d="M18.8736 6.05566C18.6919 6.05566 18.3286 6.05566 18.1671 6.05566C9.79003 6.05566 2.96729 12.8784 2.96729 21.2555C2.96729 25.3128 4.54177 29.1279 7.40813 31.9942C10.2947 34.8808 14.1098 36.4553 18.1671 36.4553C22.2244 36.4553 26.0395 34.8808 28.926 31.9942C31.7924 29.1279 33.3669 25.3128 33.3669 21.2555V20.5691H32.7613H22.5272V21.9821H31.9337V22.184C31.4492 29.3499 25.4743 35.0423 18.1873 35.0423C14.5135 35.0423 11.0415 33.6091 8.4376 31.0051C5.83365 28.4012 4.40047 24.9494 4.40047 21.2555C4.40047 17.5817 5.83365 14.1097 8.4376 11.5058C11.0415 8.90184 14.4933 7.46866 18.1873 7.46866C18.3487 7.46866 18.7323 7.46866 18.9139 7.46866V6.05566H18.8736Z" fill="white"/>
</g>
<defs>
<clipPath id="clip0_51_278">
<rect width="137" height="39.4226" fill="white"/>
</clipPath>
</defs>
</svg>
