<svg width="241" height="138" viewBox="0 0 241 138" fill="none" xmlns="http://www.w3.org/2000/svg">
<g clip-path="url(#clip0_77_241)">
<path d="M28.5514 81.5562H39.5203L53.9444 122.854H44.8402L41.385 112.159H25.9188L22.4636 122.854H13.6885L28.5514 81.5562ZM33.4874 87.9181L28.0578 105.523H39.1912L33.981 87.9181H33.4874Z" fill="#D20265"/>
<path d="M74.4014 101.629C72.8109 99.7646 71.001 99.0516 68.6427 99.0516C63.7067 99.0516 61.4032 101.794 61.4032 108.924C61.4032 114.628 63.1034 117.863 68.3685 117.863C71.7688 117.863 74.0175 117.041 76.7048 115.724L78.1857 120.935C76.1564 122.361 72.3173 123.567 67.5458 123.567C57.1253 123.567 53.1765 118.521 53.1765 108.979C53.1765 98.5032 58.5513 93.5123 68.7524 93.5123C73.0851 93.5123 77.0339 95.048 79.0083 97.4063L74.4014 101.629Z" fill="#D20265"/>
<path d="M81.1473 96.4191C84.1638 94.7738 88.9353 93.4575 93.4874 93.4575C102.482 93.4575 105.224 96.3643 105.224 105.523V114.408C105.224 116.712 106.156 117.37 107.912 117.37V122.854C107.089 123.019 106.156 123.074 104.95 123.074C101.714 123.074 99.63 122.196 98.3685 120.222C96.2845 122.196 92.7196 123.512 89.8128 123.512C81.4216 123.512 79.9956 119.125 79.9956 114.463C79.9956 106.84 85.0413 105.139 92.8841 105.139C94.2004 105.139 95.8457 105.194 97.0523 105.249V103.933C97.0523 100.807 95.4069 99.1614 91.4581 99.1614C88.2223 99.1614 85.2058 100.039 82.7378 101.41L81.1473 96.4191ZM97.0523 110.569C95.6263 110.405 94.2552 110.404 92.9389 110.404C89.5386 110.404 88.3868 111.776 88.3868 114.134C88.3868 116.657 89.0998 118.028 91.842 118.028C93.2132 118.028 95.4618 117.534 97.0523 116.108V110.569Z" fill="#D20265"/>
<path d="M128.039 77.388L136.156 76.2911V115.121L136.705 122.799H129.74L129.191 121.099C128.259 121.702 127.326 122.251 126.23 122.635C124.584 123.183 122.829 123.512 120.91 123.512C112.628 123.512 108.899 117.973 108.899 109.253C108.899 100.149 112.628 93.4027 122.72 93.4027C124.091 93.4027 125.352 93.5672 126.504 93.9511C126.997 94.0608 127.546 94.2253 127.985 94.3899V77.388H128.039ZM128.039 100.039C127.71 99.8195 127.381 99.6549 127.052 99.5452C126.065 99.271 125.133 99.1065 124.255 99.1065C120.252 99.1065 117.345 101.41 117.345 108.759C117.345 114.847 119.429 117.863 123.652 117.863C124.968 117.863 126.12 117.534 127.162 116.876L127.985 116.273V100.039H128.039Z" fill="#D20265"/>
<path d="M148.058 110.404C148.058 112.379 148.442 113.969 149.209 115.231C150.252 116.876 152.281 117.754 155.352 117.754C159.904 117.754 162.208 116.437 164.621 115.34L166.156 120.386C163.853 121.812 158.752 123.457 154.036 123.457C148.716 123.457 145.041 122.196 142.847 119.618C140.763 117.041 139.667 113.256 139.667 108.211C139.667 98.2838 144.383 93.3478 153.926 93.3478C164.401 93.3478 166.65 99.271 166.65 107.443V110.35H148.058V110.404ZM158.149 105.139C158.149 101.081 156.943 98.7225 153.762 98.7225C150.142 98.7225 148.332 100.532 148.113 103.988C148.058 104.317 148.058 104.755 148.058 105.194H158.149V105.139Z" fill="#D20265"/>
<path d="M169.337 94.1156H176.961L177.07 96.0351C177.948 95.4318 178.771 94.9382 179.758 94.5543C181.623 93.7865 183.542 93.4026 185.462 93.4026C187.326 93.4026 188.862 93.622 190.014 94.1704C191.111 94.5543 191.988 95.2125 192.646 95.9254C193.579 95.4318 194.456 94.9382 195.443 94.5543C197.473 93.7865 199.831 93.4026 201.696 93.4026C209.1 93.4026 210.964 97.2966 210.964 103.439V122.799H202.957V105.194C202.957 102.287 202.902 99.7097 199.337 99.7097C198.021 99.7097 196.924 99.8743 195.992 100.203C195.498 100.478 194.895 100.697 194.401 100.971C194.511 101.794 194.566 102.562 194.566 103.439V122.799H186.504V105.194C186.504 102.287 186.394 99.7097 182.939 99.7097C181.623 99.7097 180.471 99.8743 179.593 100.203L178.113 100.971V122.799H170.05V101.794L169.337 94.1156Z" fill="#D20265"/>
<path d="M211.294 94.1156H220.288L226.211 113.531H226.815L232.519 94.1156H240.8L229.447 125.158C226.705 132.287 223.963 137.169 215.626 137.169C214.255 137.169 212.72 137.114 211.403 136.675L212.445 131.191C213.213 131.355 213.981 131.465 214.859 131.465C217.656 131.465 219.082 130.423 219.74 129.326C220.837 128.119 221.769 125.267 222.701 122.854L211.294 94.1156Z" fill="#D20265"/>
<path d="M0.800049 28.7408H30.0322V35.9255H9.9591V47.2783H29.3192V54.2984H9.9591V67.0224H30.8V74.1522H0.800049V28.7408Z" fill="#D20265"/>
<path d="M43.7432 64.3898C48.0211 66.4739 51.7505 67.516 56.2478 67.516C62.5549 67.516 65.0229 65.2674 65.0229 62.3057C65.0229 59.6184 62.6646 58.2472 61.5129 57.644C57.948 55.8889 53.7249 54.6823 49.7761 53.1467C44.0723 50.4045 41.1107 47.8268 41.1107 40.9712C41.1107 32.909 47.1984 27.973 58.4416 27.973C63.2679 27.973 69.246 28.9054 73.4142 31.3734L70.3429 38.1741C67.3264 36.4191 62.9937 35.2125 58.4964 35.2125C52.6829 35.2125 50.2697 37.2418 50.2697 40.2034C50.2697 41.6842 50.7633 42.8359 51.6957 43.6586C52.6281 44.4264 53.6153 44.9748 54.6025 45.4136C57.6189 46.7299 62.1162 48.1558 65.8456 49.856C70.288 51.995 74.0175 54.6275 74.0175 61.7573C74.0175 69.8195 67.3813 74.8652 56.4123 74.8652C51.4763 74.8652 45.6079 73.7134 40.3977 71.1906L43.7432 64.3898Z" fill="#D20265"/>
<path d="M100.398 49.3075H118.771V71.9035C114.328 73.9328 108.734 74.9748 102.263 74.9748C86.7965 74.9748 79.9409 66.5287 79.9409 51.5013C79.9409 35.9255 88.387 28.0278 102.701 28.0278C109.392 28.0278 115.425 29.9474 119.484 34.7189L113.89 39.6549C111.312 36.8578 107.747 34.8834 102.811 34.8834C93.9811 34.8834 89.2645 40.9712 89.2645 52.0498C89.2645 62.4154 94.0908 67.7353 102.811 67.7353C104.127 67.7353 105.499 67.6805 106.924 67.4611C107.857 67.2966 108.844 67.0772 109.831 66.8578V56.2728H100.343V49.3075H100.398Z" fill="#D20265"/>
<path d="M192.537 71.5197C189.849 68.8872 186.23 67.2418 182.171 67.2418C178.661 67.2418 175.48 68.4484 172.957 70.4777C175.48 69.7647 179.374 68.8323 182.445 68.942C186.175 68.9968 189.52 70.1486 192.537 71.5197Z" fill="#D20265"/>
<path d="M193.853 73.5489C192.921 72.6714 187.162 70.2034 182.006 70.2034C177.893 70.2034 172.299 71.4648 171.038 72.452C169.831 73.3844 168.844 74.207 167.747 75.0845C171.367 75.5781 175.754 76.5105 181.568 76.7847C188.314 77.1138 193.085 76.6202 196.76 76.346C195.992 75.5233 194.785 74.4812 193.853 73.5489Z" fill="#D20265"/>
<path d="M183.158 34.1704C175.261 33.9511 168.405 37.845 165.444 43.5489C170.105 45.5781 176.138 46.9492 182.72 47.1138C189.356 47.2783 195.444 46.2911 200.27 44.5361C197.692 38.6677 191.056 34.4447 183.158 34.1704Z" fill="#D20265"/>
<path d="M188.588 33.8414C188.204 31.3186 186.175 29.3442 183.652 29.2893C181.184 29.2345 179.045 30.9895 178.497 33.4027C180.032 33.1285 181.623 32.9639 183.268 33.0188C185.078 33.0736 186.888 33.3478 188.588 33.8414Z" fill="#D20265"/>
<path d="M186.559 29.399C185.955 27.5891 185.187 25.8341 184.255 24.5178C183.213 25.7244 182.116 27.2601 181.293 28.9054C182.006 28.5215 182.829 28.3569 183.652 28.3569C184.749 28.3569 185.736 28.7409 186.559 29.399Z" fill="#D20265"/>
<path d="M120.855 21.8852C123.432 22.2692 130.288 22.324 138.844 33.2929C140.215 35.048 147.4 47.1686 150.69 50.8432C155.9 56.7116 162.153 63.8414 181.184 64.335C187.93 64.4995 193.469 63.5671 201.367 59.5635C204.877 57.8085 209.1 54.4081 211.732 52.324C217.546 47.7719 226.266 41.5745 233.67 46.5653C237.18 48.9236 237.509 54.8469 234.767 58.0278C227.308 66.803 214.858 51.9401 208.167 61.4831C211.732 56.4373 219.74 62.4154 223.853 63.6768C229.941 65.4867 239.484 62.6896 240.69 53.2564C241.403 47.7719 237.948 43.7134 234.548 41.8487C228.131 38.2838 219.136 40.7518 212.555 43.3843C196.102 50.0205 192.866 50.4593 181.568 50.1302C169.941 49.8012 163.688 46.4556 159.465 44.0425C156.504 42.3971 152.994 39.8194 150.197 37.6805C147.619 35.7061 145.206 33.5123 143.012 31.0991C139.228 27.0406 132.043 20.6238 120.855 21.8852Z" fill="#D20265"/>
<path d="M107.692 13.0553C108.954 14.3167 110.983 15.7426 117.674 20.2399C115.48 18.7591 112.847 15.4684 115.316 12.2874C117.071 10.0936 119.922 7.02234 119.922 4.22527C119.922 2.85415 118.935 0.276457 116.028 0.386146C112.628 0.440991 111.86 3.45744 111.86 3.45744C111.86 3.45744 110.873 -0.546212 106.595 0.495835C103.853 1.15397 103.085 3.95105 103.195 5.76092C103.469 8.33861 104.456 9.92911 107.692 13.0553Z" fill="#D20265"/>
</g>
<defs>
<clipPath id="clip0_77_241">
<rect width="240" height="136.837" fill="white" transform="translate(0.800049 0.331299)"/>
</clipPath>
</defs>
</svg>
