<svg width="241" height="137" viewBox="0 0 241 137" fill="none" xmlns="http://www.w3.org/2000/svg">
<g clip-path="url(#clip0_77_268)">
<path d="M28.5514 81.2249H39.5203L53.9444 122.523H44.8402L41.385 111.828H25.9188L22.4636 122.523H13.6885L28.5514 81.2249ZM33.4874 87.5868L28.0578 105.192H39.1912L33.981 87.5868H33.4874Z" fill="white"/>
<path d="M74.4014 101.298C72.8109 99.4333 71.001 98.7203 68.6427 98.7203C63.7067 98.7203 61.4032 101.463 61.4032 108.592C61.4032 114.296 63.1034 117.532 68.3685 117.532C71.7688 117.532 74.0175 116.709 76.7048 115.393L78.1857 120.603C76.1564 122.029 72.3173 123.236 67.5458 123.236C57.1253 123.236 53.1765 118.19 53.1765 108.647C53.1765 98.1719 58.5513 93.181 68.7524 93.181C73.0851 93.181 77.0339 94.7167 79.0083 97.075L74.4014 101.298Z" fill="white"/>
<path d="M81.1473 96.0878C84.1638 94.4425 88.9353 93.1262 93.4874 93.1262C102.482 93.1262 105.224 96.033 105.224 105.192V114.077C105.224 116.38 106.156 117.038 107.912 117.038V122.523C107.089 122.687 106.156 122.742 104.95 122.742C101.714 122.742 99.63 121.865 98.3685 119.89C96.2845 121.865 92.7196 123.181 89.8128 123.181C81.4216 123.181 79.9956 118.793 79.9956 114.132C79.9956 106.508 85.0413 104.808 92.8841 104.808C94.2004 104.808 95.8457 104.863 97.0523 104.918V103.602C97.0523 100.475 95.4069 98.8301 91.4581 98.8301C88.2223 98.8301 85.2058 99.7076 82.7378 101.079L81.1473 96.0878ZM97.0523 110.238C95.6263 110.073 94.2552 110.073 92.9389 110.073C89.5386 110.073 88.3868 111.444 88.3868 113.803C88.3868 116.325 89.0998 117.697 91.842 117.697C93.2132 117.697 95.4618 117.203 97.0523 115.777V110.238Z" fill="white"/>
<path d="M128.039 77.0567L136.156 75.9598V114.79L136.705 122.468H129.74L129.191 120.768C128.259 121.371 127.326 121.92 126.23 122.304C124.584 122.852 122.829 123.181 120.91 123.181C112.628 123.181 108.899 117.642 108.899 108.921C108.899 99.8172 112.628 93.0714 122.72 93.0714C124.091 93.0714 125.352 93.2359 126.504 93.6198C126.997 93.7295 127.546 93.894 127.985 94.0586V77.0567H128.039ZM128.039 99.7076C127.71 99.4882 127.381 99.3236 127.052 99.2139C126.065 98.9397 125.133 98.7752 124.255 98.7752C120.252 98.7752 117.345 101.079 117.345 108.428C117.345 114.516 119.429 117.532 123.652 117.532C124.968 117.532 126.12 117.203 127.162 116.545L127.985 115.942V99.7076H128.039Z" fill="white"/>
<path d="M148.058 110.073C148.058 112.048 148.442 113.638 149.209 114.899C150.252 116.545 152.281 117.422 155.352 117.422C159.904 117.422 162.208 116.106 164.621 115.009L166.156 120.055C163.853 121.481 158.752 123.126 154.036 123.126C148.716 123.126 145.041 121.865 142.847 119.287C140.763 116.709 139.667 112.925 139.667 107.879C139.667 97.9525 144.383 93.0165 153.926 93.0165C164.401 93.0165 166.65 98.9397 166.65 107.112V110.018H148.058V110.073ZM158.149 104.808C158.149 100.75 156.943 98.3912 153.762 98.3912C150.142 98.3912 148.332 100.201 148.113 103.656C148.058 103.985 148.058 104.424 148.058 104.863H158.149V104.808Z" fill="white"/>
<path d="M169.337 93.7843H176.961L177.07 95.7038C177.948 95.1005 178.771 94.6069 179.758 94.223C181.623 93.4552 183.542 93.0713 185.462 93.0713C187.326 93.0713 188.862 93.2907 190.014 93.8391C191.111 94.223 191.988 94.8812 192.646 95.5941C193.579 95.1005 194.456 94.6069 195.443 94.223C197.473 93.4552 199.831 93.0713 201.696 93.0713C209.1 93.0713 210.964 96.9653 210.964 103.108V122.468H202.957V104.863C202.957 101.956 202.902 99.3784 199.337 99.3784C198.021 99.3784 196.924 99.543 195.992 99.872C195.498 100.146 194.895 100.366 194.401 100.64C194.511 101.463 194.566 102.23 194.566 103.108V122.468H186.504V104.863C186.504 101.956 186.394 99.3784 182.939 99.3784C181.623 99.3784 180.471 99.543 179.593 99.872L178.113 100.64V122.468H170.05V101.463L169.337 93.7843Z" fill="white"/>
<path d="M211.294 93.7843H220.288L226.211 113.199H226.815L232.519 93.7843H240.8L229.447 124.826C226.705 131.956 223.963 136.837 215.626 136.837C214.255 136.837 212.72 136.782 211.403 136.344L212.445 130.859C213.213 131.024 213.981 131.133 214.859 131.133C217.656 131.133 219.082 130.091 219.74 128.995C220.837 127.788 221.769 124.936 222.701 122.523L211.294 93.7843Z" fill="white"/>
<path d="M0.800049 28.4095H30.0322V35.5942H9.9591V46.947H29.3192V53.9671H9.9591V66.6911H30.8V73.8209H0.800049V28.4095Z" fill="white"/>
<path d="M43.7432 64.0585C48.0211 66.1426 51.7505 67.1847 56.2478 67.1847C62.5549 67.1847 65.0229 64.9361 65.0229 61.9744C65.0229 59.2871 62.6646 57.9159 61.5129 57.3127C57.948 55.5576 53.7249 54.351 49.7761 52.8154C44.0723 50.0732 41.1107 47.4955 41.1107 40.6399C41.1107 32.5777 47.1984 27.6417 58.4416 27.6417C63.2679 27.6417 69.246 28.5741 73.4142 31.0421L70.3429 37.8428C67.3264 36.0878 62.9937 34.8812 58.4964 34.8812C52.6829 34.8812 50.2697 36.9105 50.2697 39.8721C50.2697 41.3529 50.7633 42.5046 51.6957 43.3273C52.6281 44.0951 53.6153 44.6435 54.6025 45.0823C57.6189 46.3986 62.1162 47.8245 65.8456 49.5247C70.288 51.6637 74.0175 54.2962 74.0175 61.426C74.0175 69.4882 67.3813 74.5339 56.4123 74.5339C51.4763 74.5339 45.6079 73.3821 40.3977 70.8593L43.7432 64.0585Z" fill="white"/>
<path d="M100.398 48.9762H118.771V71.5722C114.328 73.6015 108.734 74.6435 102.263 74.6435C86.7965 74.6435 79.9409 66.1974 79.9409 51.17C79.9409 35.5942 88.387 27.6965 102.701 27.6965C109.392 27.6965 115.425 29.6161 119.484 34.3876L113.89 39.3236C111.312 36.5265 107.747 34.5521 102.811 34.5521C93.9811 34.5521 89.2645 40.6399 89.2645 51.7185C89.2645 62.0841 94.0908 67.404 102.811 67.404C104.127 67.404 105.499 67.3492 106.924 67.1298C107.857 66.9653 108.844 66.7459 109.831 66.5265V55.9415H100.343V48.9762H100.398Z" fill="white"/>
<path d="M192.537 71.1884C189.849 68.5559 186.23 66.9105 182.171 66.9105C178.661 66.9105 175.48 68.1171 172.957 70.1464C175.48 69.4334 179.374 68.501 182.445 68.6107C186.175 68.6655 189.52 69.8173 192.537 71.1884Z" fill="white"/>
<path d="M193.853 73.2176C192.921 72.3401 187.162 69.8721 182.006 69.8721C177.893 69.8721 172.299 71.1335 171.038 72.1207C169.831 73.0531 168.844 73.8757 167.747 74.7532C171.367 75.2468 175.754 76.1792 181.568 76.4534C188.314 76.7825 193.085 76.2889 196.76 76.0147C195.992 75.192 194.785 74.1499 193.853 73.2176Z" fill="white"/>
<path d="M183.158 33.8391C175.261 33.6198 168.405 37.5137 165.444 43.2176C170.105 45.2468 176.138 46.6179 182.72 46.7825C189.356 46.947 195.444 45.9598 200.27 44.2048C197.692 38.3364 191.056 34.1134 183.158 33.8391Z" fill="white"/>
<path d="M188.588 33.5101C188.204 30.9873 186.175 29.0129 183.652 28.958C181.184 28.9032 179.045 30.6582 178.497 33.0714C180.032 32.7972 181.623 32.6326 183.268 32.6875C185.078 32.7423 186.888 33.0165 188.588 33.5101Z" fill="white"/>
<path d="M186.559 29.0677C185.955 27.2578 185.187 25.5028 184.255 24.1865C183.213 25.3931 182.116 26.9288 181.293 28.5741C182.006 28.1902 182.829 28.0256 183.652 28.0256C184.749 28.0256 185.736 28.4096 186.559 29.0677Z" fill="white"/>
<path d="M120.855 21.5539C123.432 21.9379 130.288 21.9927 138.844 32.9616C140.215 34.7167 147.4 46.8373 150.69 50.5119C155.9 56.3803 162.153 63.5101 181.184 64.0037C187.93 64.1682 193.469 63.2358 201.367 59.2322C204.877 57.4772 209.1 54.0768 211.732 51.9927C217.546 47.4406 226.266 41.2432 233.67 46.234C237.18 48.5923 237.509 54.5156 234.767 57.6965C227.308 66.4717 214.858 51.6088 208.167 61.1518C211.732 56.106 219.74 62.0841 223.853 63.3455C229.941 65.1554 239.484 62.3583 240.69 52.9251C241.403 47.4406 237.948 43.3821 234.548 41.5174C228.131 37.9525 219.136 40.4205 212.555 43.053C196.102 49.6892 192.866 50.128 181.568 49.7989C169.941 49.4699 163.688 46.1243 159.465 43.7112C156.504 42.0658 152.994 39.4881 150.197 37.3492C147.619 35.3748 145.206 33.181 143.012 30.7678C139.228 26.7093 132.043 20.2925 120.855 21.5539Z" fill="white"/>
<path d="M107.692 12.724C108.954 13.9854 110.983 15.4113 117.674 19.9086C115.48 18.4278 112.847 15.1371 115.316 11.9561C117.071 9.76234 119.922 6.69104 119.922 3.89397C119.922 2.52285 118.935 -0.054842 116.028 0.0548472C112.628 0.109692 111.86 3.12615 111.86 3.12615C111.86 3.12615 110.873 -0.877511 106.595 0.164536C103.853 0.822672 103.085 3.61975 103.195 5.42962C103.469 8.00731 104.456 9.59781 107.692 12.724Z" fill="white"/>
</g>
<defs>
<clipPath id="clip0_77_268">
<rect width="240" height="136.837" fill="white" transform="translate(0.800049)"/>
</clipPath>
</defs>
</svg>
