<svg width="619" height="398" viewBox="0 0 619 398" fill="none" xmlns="http://www.w3.org/2000/svg">
<g clip-path="url(#clip0_73_9)">
<g clip-path="url(#clip1_73_9)">
<path d="M475.195 254.479C475.195 333.242 411.292 397.115 332.493 397.115C254.837 397.115 191.696 335.145 189.834 257.99C189.791 256.848 189.792 255.663 189.792 254.521C189.792 223.43 199.737 194.708 216.622 171.274C242.522 135.319 284.799 111.884 332.493 111.884C373.543 111.884 410.531 129.185 436.557 156.934C457.59 179.353 471.471 208.583 474.56 240.943C474.983 245.384 475.195 249.91 475.195 254.479Z" fill="#C7D9E0"/>
<path d="M346.586 222.161L341.296 229.902L331.097 238.701C331.097 238.701 329.616 253.463 328.262 254.521C326.865 255.578 333.552 263.319 333.552 263.319L337.318 272.795L348.66 274.191L362.033 270.68L376.802 271.737L382.769 274.191L377.141 284.723L386.62 299.148L381.33 314.968L385.182 329.731L390.091 342.717C390.091 342.717 387.975 349.02 390.091 349.02C392.207 349.02 400.628 349.02 400.628 349.02L421.365 333.58V315.983C421.365 315.983 433.68 301.22 434.357 300.163C435.076 299.105 439.266 283.285 439.266 283.285L450.523 270.299L445.233 261.881L436.431 259.428L422 238.701L417.091 226.391L403.718 222.161L393.518 227.787L387.89 222.161L382.473 216.916L379.68 212.347L363.852 217.254L353.315 216.535L346.586 222.161Z" fill="#95B7C3"/>
<path d="M242.226 267.845L232.747 280.662L237.486 304.012L246.797 311.372L259.45 321.567L264.359 339.841L279.467 361.625C279.467 361.625 285.773 376.727 287.55 377.446C289.328 378.165 297.411 385.187 297.411 385.187L311.461 383.791V379.222C311.461 379.222 300.585 367.97 299.865 366.574C299.146 365.179 299.527 350.754 299.865 349.02C300.204 347.243 309.007 332.142 309.007 332.142L306.552 321.271C306.552 321.271 314.296 310.738 314.296 308.961C314.296 307.185 312.519 299.486 312.519 299.486L310.403 286.246L292.46 280.705L279.087 282.27L273.458 273.852L258.688 272.075L242.226 267.845Z" fill="#95B7C3"/>
<path d="M456.617 233.751L450.65 236.586L460.849 246.399L450.65 255.917H441.509L434.103 240.773L424.624 232.356L417.26 226.391L429.194 215.52L417.26 212.347L411.293 207.779C411.293 207.779 402.152 207.779 398.301 210.232C394.45 212.686 389.414 206.383 389.414 206.383L377.564 201.096L371.259 202.491L363.176 210.571H352.977L348.745 215.478L339.604 208.794L347.348 201.053H360.002L362.456 197.204L357.886 195.808L357.547 191.959L363.514 189.844L357.208 184.218L352.299 185.614H345.613V182.103L356.15 175.8L365.63 185.614H369.143L374.052 181.045L378.961 182.441L387.763 185.614L396.185 183.879C396.185 183.879 406.384 174.404 406.384 173.347C406.384 172.289 401.475 169.836 401.475 169.836C401.475 169.836 396.566 169.836 395.508 169.836C394.45 169.836 398.343 161.037 398.343 161.037L389.456 165.606C389.456 165.606 390.26 171.908 389.456 173.347C388.652 174.742 384.632 177.196 384.632 177.196C384.632 177.196 376.549 171.232 375.491 172.289C374.433 173.347 370.581 172.289 370.581 172.289L367.408 166.325L375.829 164.21L380.061 157.907L395.169 148.432C395.169 148.432 402.194 149.489 404.649 150.885C407.103 152.281 412.012 153 412.012 153L406.722 158.626L411.631 164.252H420.434L434.484 158.626L436.6 156.934C457.633 179.353 471.514 208.583 474.603 240.942L470.371 239.42L456.617 233.751Z" fill="#95B7C3"/>
<path d="M266.136 206.341C266.136 208.456 260.508 215.478 260.508 215.478L251.705 219.708L241.506 229.521L239.771 246.738L237.317 255.875H229.572L225.721 248.853L218.358 246.738L211.333 253.421L212.391 260.443C212.391 260.443 221.193 266.407 221.532 267.803C221.87 269.199 223.648 273.429 223.648 273.429L232.789 277.998V282.904L214.168 273.049L194.489 267.761L189.919 257.905C189.876 256.763 189.876 255.578 189.876 254.436C189.876 223.346 199.822 194.624 216.707 171.189L217.68 170.47L225.933 177.154V183.837L221.193 188.067L212.771 190.859V194.032L221.912 192.974L228.853 189.505L236.216 183.879H242.184L237.274 188.448L228.853 197.585L223.224 205.326L225.848 210.952L230.926 208.498L231.265 212.348L234.778 216.916L239.687 207.441L241.803 197.965L249.547 193.397L254.118 195.512H262.92C262.962 195.47 266.136 204.268 266.136 206.341Z" fill="#95B7C3"/>
<path d="M258.731 161.037H266.137V167.721L269.988 170.512L271.384 187.052H278.071L282.98 177.196L293.518 164.548L301.262 159.303L314.254 149.785L316.032 137.518L324.453 127.662L316.751 124.87L310.065 127.324L291.613 136.08L280.864 139.252L269.268 145.217L250.309 150.504L240.83 155.961V164.21L232.747 170.512L242.226 171.951L248.532 166.663L254.16 160.36L258.731 161.037Z" fill="#95B7C3"/>
<path d="M446.375 254.479C446.375 333.242 395.38 397.115 332.493 397.115C270.538 397.115 220.135 335.145 218.654 257.99C218.611 256.848 218.611 255.663 218.611 254.521C218.611 223.43 226.567 194.708 240.025 171.274C260.719 135.319 294.406 111.884 332.493 111.884C365.249 111.884 394.788 129.185 415.524 156.934C432.325 179.353 443.413 208.583 445.825 240.943C446.206 245.384 446.375 249.91 446.375 254.479Z" stroke="white" stroke-width="0.701521" stroke-miterlimit="10"/>
<path d="M402.659 254.479C402.659 333.242 371.258 397.115 332.536 397.115C294.363 397.115 263.343 335.145 262.412 257.99C262.412 256.848 262.412 255.663 262.412 254.521C262.412 223.43 267.279 194.708 275.616 171.274C288.354 135.319 309.133 111.884 332.578 111.884C352.764 111.884 370.92 129.185 383.742 156.934C394.068 179.353 400.924 208.583 402.405 240.943C402.532 245.384 402.659 249.91 402.659 254.479Z" stroke="white" stroke-width="0.701521" stroke-miterlimit="10"/>
<path d="M361.398 254.479C361.398 333.242 348.448 397.115 332.493 397.115C316.793 397.115 303.97 335.145 303.631 257.99C303.631 256.848 303.631 255.663 303.631 254.521C303.631 223.43 305.663 194.708 309.048 171.274C314.296 135.319 322.844 111.884 332.493 111.884C340.788 111.884 348.279 129.185 353.568 156.934C357.843 179.353 360.636 208.583 361.271 240.943C361.355 245.384 361.398 249.91 361.398 254.479Z" stroke="white" stroke-width="0.701521" stroke-miterlimit="10"/>
<path d="M188.733 254.479H474.01" stroke="white" stroke-width="0.701521" stroke-miterlimit="10"/>
<mask id="mask0_73_9" style="mask-type:luminance" maskUnits="userSpaceOnUse" x="189" y="111" width="287" height="287">
<path d="M475.195 254.479C475.195 333.242 411.292 397.115 332.493 397.115C254.837 397.115 191.696 335.145 189.834 257.99C189.791 256.848 189.792 255.663 189.792 254.521C189.792 223.43 199.737 194.708 216.622 171.274C242.522 135.319 284.799 111.884 332.493 111.884C373.543 111.884 410.531 129.185 436.557 156.934C457.59 179.353 471.471 208.583 474.56 240.943C474.983 245.384 475.195 249.91 475.195 254.479Z" fill="white"/>
</mask>
<g mask="url(#mask0_73_9)">
<path d="M332.535 56.7668C411.335 56.7668 475.237 88.1537 475.237 126.858C475.237 165.013 413.239 196.02 336.048 196.95C334.905 196.95 333.72 196.95 332.578 196.95C301.473 196.95 272.738 192.086 249.293 183.752C213.321 171.02 189.876 150.251 189.876 126.816C189.876 106.639 207.185 88.4921 234.946 75.6751C257.376 65.3538 286.619 58.5012 318.993 57.0207C323.394 56.8937 327.923 56.7668 332.535 56.7668Z" stroke="white" stroke-width="0.701521" stroke-miterlimit="10"/>
</g>
<mask id="mask1_73_9" style="mask-type:luminance" maskUnits="userSpaceOnUse" x="189" y="111" width="287" height="287">
<path d="M475.195 254.479C475.195 333.242 411.292 397.115 332.493 397.115C254.837 397.115 191.696 335.145 189.834 257.99C189.791 256.848 189.792 255.663 189.792 254.521C189.792 223.43 199.737 194.708 216.622 171.274C242.522 135.319 284.799 111.884 332.493 111.884C373.543 111.884 410.531 129.185 436.557 156.934C457.59 179.353 471.471 208.583 474.56 240.943C474.983 245.384 475.195 249.91 475.195 254.479Z" fill="white"/>
</mask>
<g mask="url(#mask1_73_9)">
<path d="M332.536 0.338379C388.017 0.338379 433.002 31.7252 433.002 70.43C433.002 108.585 389.329 139.591 334.99 140.522C334.186 140.522 333.34 140.522 332.536 140.522C310.656 140.522 290.385 135.657 273.881 127.324C248.531 114.592 232.069 93.8221 232.069 70.3877C232.069 50.2105 244.257 32.0636 263.809 19.2466C279.594 8.92535 300.203 2.07269 322.971 0.592181C326.103 0.46528 329.277 0.338379 332.536 0.338379Z" stroke="white" stroke-width="0.701521" stroke-miterlimit="10"/>
</g>
<mask id="mask2_73_9" style="mask-type:luminance" maskUnits="userSpaceOnUse" x="189" y="111" width="287" height="287">
<path d="M475.195 254.479C475.195 333.242 411.292 397.115 332.493 397.115C254.837 397.115 191.696 335.145 189.834 257.99C189.791 256.848 189.792 255.663 189.792 254.521C189.792 223.43 199.737 194.708 216.622 171.274C242.522 135.319 284.799 111.884 332.493 111.884C373.543 111.884 410.531 129.185 436.557 156.934C457.59 179.353 471.471 208.583 474.56 240.943C474.983 245.384 475.195 249.91 475.195 254.479Z" fill="white"/>
</mask>
<g mask="url(#mask2_73_9)">
<path d="M332.535 452.19C411.335 452.19 475.237 420.804 475.237 382.099C475.237 343.944 413.239 312.938 336.048 312.007C334.905 312.007 333.72 312.007 332.578 312.007C301.473 312.007 272.738 316.872 249.293 325.205C213.321 337.937 189.876 358.707 189.876 382.141C189.876 402.318 207.185 420.465 234.946 433.282C257.376 443.603 286.619 450.456 318.993 451.937C323.394 452.064 327.923 452.19 332.535 452.19Z" stroke="white" stroke-width="0.701521" stroke-miterlimit="10"/>
</g>
<mask id="mask3_73_9" style="mask-type:luminance" maskUnits="userSpaceOnUse" x="189" y="111" width="287" height="287">
<path d="M475.195 254.479C475.195 333.242 411.292 397.115 332.493 397.115C254.837 397.115 191.696 335.145 189.834 257.99C189.791 256.848 189.792 255.663 189.792 254.521C189.792 223.43 199.737 194.708 216.622 171.274C242.522 135.319 284.799 111.884 332.493 111.884C373.543 111.884 410.531 129.185 436.557 156.934C457.59 179.353 471.471 208.583 474.56 240.943C474.983 245.384 475.195 249.91 475.195 254.479Z" fill="white"/>
</mask>
<g mask="url(#mask3_73_9)">
<path d="M332.536 508.661C388.017 508.661 433.002 477.275 433.002 438.57C433.002 400.415 389.329 369.409 334.99 368.478C334.186 368.478 333.34 368.478 332.536 368.478C310.656 368.478 290.385 373.343 273.881 381.676C248.531 394.408 232.069 415.178 232.069 438.612C232.069 458.789 244.257 476.936 263.809 489.753C279.594 500.074 300.203 506.927 322.971 508.408C326.103 508.534 329.277 508.661 332.536 508.661Z" stroke="white" stroke-width="0.701521" stroke-miterlimit="10"/>
</g>
<path d="M543.492 224.51C548.092 222.606 550.276 217.335 548.371 212.738C546.465 208.14 541.192 205.957 536.593 207.861C531.993 209.766 529.809 215.036 531.714 219.634C533.62 224.231 538.893 226.414 543.492 224.51Z" fill="#F8AD1F"/>
<path d="M92.4921 106.285C97.4704 106.285 101.506 102.251 101.506 97.2749C101.506 92.2988 97.4704 88.2649 92.4921 88.2649C87.5138 88.2649 83.478 92.2988 83.478 97.2749C83.478 102.251 87.5138 106.285 92.4921 106.285Z" fill="#F8AD1F"/>
<path d="M398.312 325.248C409.633 313.933 409.633 295.586 398.312 284.271C386.991 272.955 368.637 272.955 357.316 284.271C345.995 295.586 345.995 313.933 357.316 325.248C368.637 336.564 386.991 336.564 398.312 325.248Z" fill="#F8AD1F"/>
<path d="M537.755 73.1871C553.885 57.0644 553.885 30.9244 537.755 14.8017C521.625 -1.32102 495.473 -1.32102 479.343 14.8017C463.213 30.9244 463.213 57.0644 479.343 73.1871C495.473 89.3098 521.625 89.3098 537.755 73.1871Z" fill="#A19F53"/>
<path d="M542.693 373.025C546.372 357.451 536.724 341.844 521.143 338.167C505.562 334.489 489.948 344.133 486.269 359.707C482.59 375.281 492.238 390.888 507.819 394.565C523.401 398.243 539.014 388.599 542.693 373.025Z" fill="#88AEBC"/>
<path d="M125.544 299.233C130.144 297.329 132.328 292.058 130.423 287.461C128.518 282.863 123.244 280.68 118.645 282.585C114.046 284.489 111.861 289.76 113.767 294.357C115.672 298.954 120.945 301.138 125.544 299.233Z" fill="#BE768B"/>
<path d="M156.274 180.157C161.253 180.157 165.288 176.123 165.288 171.147C165.288 166.171 161.253 162.137 156.274 162.137C151.296 162.137 147.26 166.171 147.26 171.147C147.26 176.123 151.296 180.157 156.274 180.157Z" fill="#F9626A"/>
<path d="M416.921 193.397L426.062 186.967L419.079 178.253L429.659 174.658L425.469 164.294L436.642 163.829L435.499 152.746L446.375 155.411L448.407 144.456L458.056 150.081L463.134 140.141L470.794 148.263L478.454 140.141L483.49 150.081L493.139 144.456L495.212 155.411L506.046 152.746L504.903 163.871L516.076 164.294L511.886 174.658L522.466 178.253L515.483 186.967L524.624 193.397L515.483 199.869L522.466 208.583L511.886 212.178L516.076 222.542L504.903 222.965L506.046 234.09L495.212 231.425L493.139 242.381L483.49 236.755L478.454 246.695L470.794 238.574L463.134 246.695L458.056 236.755L448.407 242.381L446.375 231.425L435.499 234.09L436.642 222.965L425.469 222.542L429.659 212.178L419.079 208.583L426.062 199.869L416.921 193.397Z" fill="#F7A509"/>
<path d="M505.453 193.397C505.453 200.588 503.253 207.271 499.528 212.813C493.307 221.992 482.728 228.041 470.793 228.041C451.665 228.041 436.091 212.517 436.091 193.355C436.091 180.157 443.497 168.651 454.373 162.814C459.24 160.191 464.826 158.711 470.793 158.711C489.922 158.753 505.453 174.277 505.453 193.397Z" fill="#FAC562"/>
<path d="M505.453 193.397C505.453 200.588 503.253 207.271 499.528 212.813C494.662 215.435 489.033 216.916 483.108 216.916C463.98 216.916 448.449 201.392 448.449 182.272C448.449 175.081 450.649 168.397 454.416 162.856C459.283 160.233 464.869 158.753 470.836 158.753C489.922 158.753 505.453 174.277 505.453 193.397Z" fill="#FBD68E"/>
<path d="M522.518 27.6811L515.451 15.2871L502.924 15.9639L512.742 33.2225L508.257 35.8028L521.164 36.0143L527.597 24.8047L522.518 27.6811Z" fill="white"/>
<path d="M502.163 16.387L491.498 34.6184L501.147 40.2867L508.595 27.5966L502.163 16.387Z" fill="white"/>
<path d="M518.244 50.481L511.684 61.5636L518.244 72.6886V66.8512H532.505L538.134 55.6416H518.244V50.481Z" fill="white"/>
<path d="M525.184 54.7955H538.134L527.596 36.4795L517.863 42.1054L525.184 54.7955Z" fill="white"/>
<path d="M507.706 55.5146L493.021 55.5993L486.589 66.8511L507.749 66.7665L507.706 55.5146Z" fill="white"/>
<path d="M500.215 51.7076L493.825 40.498L480.875 40.7095L485.954 43.586L478.929 55.98L485.869 66.4282L495.73 49.1696L500.215 51.7076Z" fill="white"/>
<path d="M500.333 373.85C500.333 366.025 514.468 344.663 514.468 344.663C514.468 344.663 528.603 366.025 528.603 373.85C528.603 381.676 522.255 387.979 514.468 387.979C506.681 387.979 500.333 381.634 500.333 373.85Z" fill="#DEE8EC"/>
<path d="M515.357 382.522C509.263 382.522 504.354 377.615 504.354 371.524V371.481C504.1 372.327 503.973 373.216 503.973 374.146C503.973 379.603 508.374 384.002 513.833 384.002C516.626 384.002 519.165 382.818 520.985 380.957C519.335 381.972 517.43 382.522 515.357 382.522Z" fill="#ADC7D1"/>
<path d="M158.137 247.626C158.137 247.626 146.076 247.119 134.988 245.469C129.571 244.665 124.323 243.608 120.853 242.169C107.607 236.755 93.3032 235.698 83.6543 192.297C83.6543 192.297 93.8956 197.627 106.422 198.219C109.3 198.346 112.008 198.769 114.59 199.362C146.626 206.976 158.137 247.626 158.137 247.626Z" fill="#A19F53"/>
<path d="M158.137 247.626C158.137 247.626 146.076 247.118 134.988 245.469C124.45 237.812 113.32 230.41 114.632 199.404C146.626 206.975 158.137 247.626 158.137 247.626Z" fill="#8D882B"/>
<path d="M71.2119 178C71.2543 177.957 71.2966 177.915 71.3389 177.915C71.6775 177.661 72.1853 177.704 72.4392 178.042C85.8968 195.385 98.2542 205.664 106.253 211.205C113.193 216.028 118.652 218.523 120.557 219.158C120.98 219.285 121.191 219.75 121.064 220.173C120.937 220.596 120.472 220.808 120.049 220.681C119.837 220.596 114.251 218.693 105.449 212.559C97.3231 206.933 84.7965 196.57 71.1696 179.015C70.9157 178.677 70.958 178.254 71.2119 178Z" fill="#CFCEA7"/>
<path d="M286.704 36.8013C286.704 36.8013 288.015 29.5679 283.572 28.0874C279.128 26.6069 271.172 30.8792 272.992 37.9011C274.854 44.923 285.222 41.2428 285.222 41.2428L286.704 36.8013Z" fill="#2D334A"/>
<path d="M281.795 198.727C281.795 198.727 279.594 201.73 280.102 202.153C280.61 202.576 294.321 208.202 295.506 207.948C296.734 207.695 294.11 205.622 294.11 205.622C294.11 205.622 288.185 201.476 284.588 199.7C284.588 199.7 281.879 198.515 281.795 198.727Z" fill="#F5CCB5"/>
<path d="M300.669 153.508C302.151 152.323 303.378 151.985 304.817 152.62C306.382 153.339 307.06 155.242 306.256 156.765L284.376 199.827C284.038 200.504 283.191 200.8 282.514 200.461C281.837 200.123 281.499 199.319 281.795 198.642L282.599 196.739C294.11 165.648 295.76 157.992 300.669 153.508Z" fill="#F5CCB5"/>
<path d="M281.541 115.311C280.906 109.558 283.488 107.697 285.519 107.147C285.646 107.062 285.773 107.02 285.9 106.935C287.508 106.301 289.328 107.105 289.92 108.712L306.552 154.016C306.806 154.735 306.467 155.538 305.748 155.792C305.494 155.877 305.282 155.919 305.028 155.877C303.251 155.961 301.516 155.073 300.585 153.508C295.676 145.429 282.345 122.756 281.541 115.311Z" fill="#F5CCB5"/>
<path d="M289.878 202.365C288.227 202.492 285.688 202.026 282.937 201.054C282.091 200.757 281.244 200.377 280.483 200.038C279.848 201.18 279.255 202.619 279.848 202.872C280.864 203.38 295.802 209.302 296.141 208.625C296.818 207.314 293.263 204.522 289.878 202.365Z" fill="#F8535B"/>
<path d="M323.606 163.491C323.606 163.491 320.982 166.156 321.448 166.621C321.913 167.086 334.609 174.658 335.837 174.616C337.064 174.574 334.779 172.12 334.779 172.12C334.779 172.12 329.531 167.129 326.23 164.887C326.188 164.887 323.691 163.279 323.606 163.491Z" fill="#F5CCB5"/>
<path d="M331.012 168.271C329.362 168.144 326.907 167.298 324.368 165.944C323.564 165.521 322.802 165.056 322.125 164.591C321.321 165.648 320.559 166.959 321.067 167.298C321.998 167.932 335.921 176.012 336.345 175.377C337.191 174.15 334.059 170.893 331.012 168.271Z" fill="#F8535B"/>
<path d="M336.302 116.664C337.614 115.311 338.799 114.803 340.28 115.269C341.931 115.776 342.82 117.595 342.227 119.202L326.103 164.718C325.849 165.437 325.088 165.817 324.326 165.606C323.606 165.394 323.183 164.633 323.395 163.872L323.945 161.841C331.351 129.566 332.028 121.74 336.302 116.664Z" fill="#F5CCB5"/>
<path d="M294.702 120.556C289.285 118.568 288.778 115.438 289.116 113.365C289.116 113.238 289.116 113.069 289.116 112.942C289.243 111.208 290.767 109.938 292.502 110.15L340.492 115.395C341.254 115.48 341.804 116.157 341.762 116.918C341.762 117.172 341.677 117.426 341.508 117.595C340.788 119.245 339.223 120.387 337.403 120.514C328.008 121.275 301.77 123.136 294.702 120.556Z" fill="#F5CCB5"/>
<path d="M279.636 110.108C279.636 110.108 276.378 120.302 298.511 152.324C298.511 152.324 287.889 172.374 282.472 193.947L288.143 195.343C288.143 195.343 308.414 159.176 308.244 155.919C308.075 152.662 294.152 111.081 294.152 111.081C294.152 111.081 283.403 108.247 279.636 110.108Z" fill="#798E96"/>
<path d="M299.4 110.108C299.4 110.108 338.503 113.196 340.746 114.507C342.947 115.818 343.793 116.876 341.804 122.756C339.815 128.635 328.77 160.192 328.77 160.192L323.353 159.007C323.353 159.007 330.208 126.563 331.944 121.867C331.944 121.867 294.491 123.517 290.894 121.867L292.121 111.715L299.4 110.108Z" fill="#798E96"/>
<path d="M299.4 110.108C299.4 110.108 303.886 109.6 303.843 108.754L299.4 89.2961L296.776 73.3489L294.491 86.7158L299.4 110.108Z" fill="#2D334A"/>
<path d="M334.609 90.396C335.075 89.3808 336.006 88.6193 337.106 88.3655C339.942 87.731 345.316 86.7581 346.755 87.8579C348.702 89.3385 339.984 92.6802 334.355 90.9882L334.609 90.396Z" fill="#F5CCB5"/>
<path d="M335.837 88.4077C329.531 86.0812 315.1 83.1625 310.826 83.2894C307.313 83.4163 307.44 85.5736 307.398 85.6582C307.144 86.7157 308.287 88.4077 309.556 88.6192L335.202 91.5803L335.837 88.4077Z" fill="#2D334A"/>
<path d="M298.299 56.1748C295.929 53.0023 293.517 55.4134 293.39 55.4557C292.29 55.8787 291.824 58.1629 292.417 59.4742L307.779 87.8155C307.99 88.2808 308.794 87.9847 309.26 87.7732C309.429 87.6886 309.556 87.604 309.641 87.4771C310.572 86.6733 310.953 85.1082 310.699 83.8815C309.429 77.4942 301.388 60.2779 298.299 56.1748Z" fill="#2D334A"/>
<path d="M278.536 112.646C277.943 112.857 278.24 100.548 279.636 91.7496C279.298 84.1355 281.371 65.9041 283.106 60.405C285.307 53.4678 288.777 49.6607 294.533 52.4526C296.352 53.3409 298.088 58.4169 298.849 63.8736C299.611 69.2881 300.711 68.2306 297.707 76.183C296.649 79.0172 299.315 98.1792 300.627 103.213C301.008 104.651 301.558 109.6 302.277 111.165C301.219 111.927 300.204 112.477 299.061 112.9C291.105 115.734 286.492 110.066 278.536 112.646Z" fill="#F7A509"/>
<path d="M286.28 53.2983C286.28 53.2983 288.439 56.6824 293.094 57.613C293.094 57.613 288.058 102.536 289.497 107.95C289.497 107.95 279.89 108.077 277.859 108.754C277.859 108.754 279.128 79.0169 279.975 73.4756C280.779 67.892 282.768 57.3169 286.28 53.2983Z" fill="#2D334A"/>
<path d="M283.403 57.9515C286.365 55.4981 288.227 58.3322 288.312 58.3745C289.285 59.0513 289.285 61.2932 288.439 62.393L267.618 85.7851C267.321 86.2081 266.602 85.7005 266.179 85.4044C266.052 85.3198 265.925 85.1929 265.84 85.0237C265.078 84.0508 265.078 82.4857 265.544 81.3859C268.168 75.633 279.552 61.1663 283.403 57.9515Z" fill="#2D334A"/>
<path d="M285.984 100.633C285.307 101.563 285.138 102.748 285.476 103.847C286.365 106.639 288.185 111.842 289.878 112.561C292.163 113.534 290.682 104.228 286.365 100.125L285.984 100.633Z" fill="#F5CCB5"/>
<path d="M285.138 102.832C279.425 99.1944 268.252 89.3807 265.755 85.9121C263.682 83.0357 265.459 81.809 265.544 81.7244C266.221 80.8784 268.252 80.7515 269.226 81.6398L287.296 100.379L285.138 102.832Z" fill="#2D334A"/>
<path d="M290.174 50.8027C290.174 50.8027 284.207 49.2376 283.233 43.4848C281.921 35.7438 289.454 31.2177 293.982 33.4173C298.13 35.4477 297.749 38.874 297.368 39.72C296.987 40.566 290.174 50.8027 290.174 50.8027Z" fill="#2D334A"/>
<path d="M297.537 38.1973C297.537 38.1973 291.824 36.8014 290.809 34.9401C289.793 33.1212 292.628 33.0366 292.628 33.0366C292.628 33.0366 296.437 34.0095 297.537 38.1973Z" fill="#2D334A"/>
<path d="M288.269 44.8385C290.047 49.5761 294.787 52.1141 297.707 51.0566C300.584 49.9568 300.542 45.5999 298.722 40.9045C296.945 36.1669 293.686 34.6864 290.809 35.7862C287.889 36.8014 286.45 40.1008 288.269 44.8385Z" fill="#F5CCB5"/>
<path d="M288.312 42.9349L293.729 41.9197C293.856 42.7657 295.041 50.8873 294.956 53.9753C294.829 54.9482 293.475 55.4558 291.994 55.1597C290.64 54.9059 289.582 54.0176 289.497 53.1716C289.539 51.3104 288.778 45.8959 288.312 42.9349Z" fill="#F5CCB5"/>
<path d="M294.871 34.6439C294.871 34.6439 294.321 41.3697 288.439 44.2884C285.392 45.7689 283.868 40.9044 283.868 40.9044L286.492 35.8706C286.492 35.8706 288.82 33.5864 290.766 33.5864C290.936 33.5441 294.871 34.6439 294.871 34.6439Z" fill="#2D334A"/>
<path d="M286.408 46.4458C287.042 47.5456 288.905 48.307 289.666 47.884C290.47 47.4187 290.174 46.4458 289.539 45.346C288.905 44.2462 287.72 43.6117 286.916 44.0347C286.154 44.5 285.815 45.346 286.408 46.4458Z" fill="#F5CCB5"/>
<path d="M342.311 40.1006H340.788V109.092H342.311V40.1006Z" fill="#FAA743"/>
<path d="M341.55 57.7822C341.55 57.7822 363.048 46.7841 383.235 59.3473C403.421 71.9105 420.053 55.794 420.053 55.794C420.053 55.794 400.12 64.9732 385.731 52.1985C372.485 40.4813 357.123 40.4813 341.592 47.4186V57.7822H341.55Z" fill="#F8535B"/>
<path d="M338.926 40.1007C338.926 38.6624 340.111 37.478 341.55 37.478C342.988 37.478 344.173 38.6624 344.173 40.1007C344.173 41.5389 342.988 42.7233 341.55 42.7233C340.111 42.7233 338.926 41.5389 338.926 40.1007Z" fill="#FAA743"/>
</g>
</g>
<defs>
<clipPath id="clip0_73_9">
<rect width="619" height="398" fill="white"/>
</clipPath>
<clipPath id="clip1_73_9">
<rect width="478" height="509" fill="white" transform="translate(71)"/>
</clipPath>
</defs>
</svg>
