<svg width="185" height="326" viewBox="0 0 185 326" fill="none" xmlns="http://www.w3.org/2000/svg">
<path opacity="0.11" d="M10.0185 35.7095H107.246V164.002H10.0185V35.7095Z" fill="#2D334A"/>
<path d="M13.5424 32H110.77V160.292H13.5424V32Z" fill="white"/>
<path d="M106.041 66.3101H18.225" stroke="#33394F" stroke-width="0.475548" stroke-miterlimit="10"/>
<path d="M79.3804 41.4587V66.3104" stroke="#33394F" stroke-width="0.475548" stroke-miterlimit="10"/>
<path d="M88.8758 58.2931C85.6167 55.0339 85.6167 49.7498 88.8758 46.4906C92.135 43.2314 97.4192 43.2314 100.678 46.4906C103.938 49.7498 103.938 55.0339 100.678 58.2931C97.4192 61.5523 92.135 61.5523 88.8758 58.2931Z" stroke="#33394F" stroke-width="0.475548" stroke-linecap="round" stroke-linejoin="round" stroke-dasharray="2.93 2.93"/>
<path d="M99.7812 49.1552L94.7738 54.1626L83.2289 42.6177" stroke="#8F8D4A" stroke-width="4.32984" stroke-miterlimit="10"/>
<path d="M94.7739 91.6255C90.1647 91.6255 86.4282 87.889 86.4282 83.2798C86.4282 78.6706 90.1647 74.9341 94.7739 74.9341C99.3831 74.9341 103.12 78.6706 103.12 83.2798C103.12 87.889 99.3831 91.6255 94.7739 91.6255Z" stroke="#33394F" stroke-width="0.475548" stroke-linecap="round" stroke-linejoin="round" stroke-dasharray="2.93 2.93"/>
<path d="M99.7812 80.0343L94.7738 85.0417L83.2289 73.4968" stroke="#8F8D4A" stroke-width="4.32984" stroke-miterlimit="10"/>
<path d="M94.7739 122.551C90.1647 122.551 86.4282 118.814 86.4282 114.205C86.4282 109.596 90.1647 105.859 94.7739 105.859C99.3831 105.859 103.12 109.596 103.12 114.205C103.12 118.814 99.3831 122.551 94.7739 122.551Z" stroke="#33394F" stroke-width="0.475548" stroke-linecap="round" stroke-linejoin="round" stroke-dasharray="2.93 2.93"/>
<path d="M99.7812 110.96L94.7738 115.967L83.2289 104.376" stroke="#8F8D4A" stroke-width="4.32984" stroke-miterlimit="10"/>
<path d="M23.0477 46.1414H56.1987V47.2541H23.0477V46.1414Z" fill="#797C8B"/>
<path d="M23.001 51.2876H72.3335V52.4004H23.001V51.2876Z" fill="#797C8B"/>
<path d="M23.001 56.4346H72.3335V57.5473H23.001V56.4346Z" fill="#797C8B"/>
<path d="M106.041 97.6992H18.225" stroke="#33394F" stroke-width="0.475548" stroke-miterlimit="10"/>
<path d="M79.3804 72.8477V97.6993" stroke="#33394F" stroke-width="0.475548" stroke-miterlimit="10"/>
<path d="M23.0477 77.5305H56.1987V78.6433H23.0477V77.5305Z" fill="#797C8B"/>
<path d="M23.001 82.677H72.3335V83.7898H23.001V82.677Z" fill="#797C8B"/>
<path d="M23.001 87.8235H72.3335V88.9362H23.001V87.8235Z" fill="#797C8B"/>
<path d="M106.041 129.089H18.225" stroke="#33394F" stroke-width="0.475548" stroke-miterlimit="10"/>
<path d="M79.3804 104.237V129.088" stroke="#33394F" stroke-width="0.475548" stroke-miterlimit="10"/>
<path d="M23.0477 108.92H56.1987V110.032H23.0477V108.92Z" fill="#797C8B"/>
<path d="M23.001 114.066H72.3335V115.179H23.001V114.066Z" fill="#797C8B"/>
<path d="M23.001 119.212H72.3335V120.325H23.001V119.212Z" fill="#797C8B"/>
<path d="M136.503 298.228C136.503 298.228 137.708 302.308 136.966 302.587C136.224 302.818 119.347 303.56 118.142 302.818C116.937 302.077 120.553 300.871 120.553 300.871C120.553 300.871 128.528 298.692 133.118 298.228C133.164 298.228 136.503 297.996 136.503 298.228Z" fill="#D9937F"/>
<path d="M138.867 242.497C137.894 240.55 136.827 239.623 135.019 239.623C133.025 239.623 131.449 241.245 131.542 243.239L133.443 298.413C133.489 299.294 134.184 299.99 135.065 299.99C135.946 299.99 136.642 299.294 136.688 298.413L136.781 296.049C139.795 258.215 141.742 249.498 138.867 242.497Z" fill="#D9937F"/>
<path d="M144.523 193.675C143.132 187.23 139.701 186.117 137.29 186.21C137.151 186.164 136.965 186.164 136.78 186.117C134.786 185.978 133.117 187.508 133.024 189.502L131.123 244.677C131.077 245.557 131.773 246.299 132.607 246.346C132.885 246.346 133.164 246.299 133.442 246.207C135.435 245.65 136.965 244.074 137.429 242.08C139.933 231.416 146.331 202.067 144.523 193.675Z" fill="#D9937F"/>
<path d="M126.487 299.016C128.249 299.804 131.123 300.268 134.415 300.268C135.482 300.268 136.502 300.222 137.429 300.129C137.661 301.613 137.754 303.374 137.012 303.421C135.714 303.56 117.353 304.116 117.26 303.282C117.075 301.613 121.99 300.036 126.487 299.016Z" fill="#3B3E54"/>
<path d="M165.342 298.228C165.342 298.228 166.547 302.308 165.806 302.587C165.064 302.818 148.187 303.56 146.981 302.818C145.776 302.077 149.392 300.871 149.392 300.871C149.392 300.871 157.367 298.692 161.957 298.228C161.957 298.228 165.342 297.996 165.342 298.228Z" fill="#D9937F"/>
<path d="M162.652 242.312C161.539 240.457 160.334 239.623 158.572 239.762C156.578 239.947 155.187 241.709 155.419 243.657L162.142 298.46C162.235 299.341 163.023 299.944 163.904 299.851C164.785 299.758 165.434 299.017 165.388 298.136L165.249 295.771C164.971 257.937 166.13 249.035 162.652 242.312Z" fill="#D9937F"/>
<path d="M157.552 192.701C154.77 186.72 151.2 186.396 148.882 186.998C148.696 186.998 148.557 186.998 148.372 187.045C146.425 187.323 145.08 189.224 145.451 191.171L155.698 245.418C155.837 246.253 156.671 246.856 157.552 246.717C157.83 246.67 158.109 246.531 158.294 246.392C160.102 245.418 161.261 243.564 161.261 241.477C161.308 230.535 161.122 200.491 157.552 192.701Z" fill="#D9937F"/>
<path d="M155.28 299.016C157.042 299.804 159.917 300.268 163.209 300.268C164.275 300.268 165.295 300.222 166.223 300.129C166.454 301.613 166.547 303.374 165.805 303.421C164.507 303.56 146.146 304.116 146.054 303.282C145.868 301.613 150.783 300.036 155.28 299.016Z" fill="#3B3E54"/>
<path d="M158.387 190.29C158.387 190.29 164.089 216.069 162.652 240.086C162.652 240.086 164.275 242.173 165.341 246.763C165.341 246.763 148.974 252.883 130.011 252.698C130.011 252.698 129.779 245.743 130.011 238.603C130.243 231.463 133.071 189.502 133.071 189.502L158.387 190.29Z" fill="#2D334A"/>
<path d="M148.65 103.495C148.65 103.495 151.942 104.005 153.843 105.906C155.791 107.807 154.4 108.827 157.367 110.264C160.381 111.702 160.334 113.927 160.427 115.735C160.52 117.544 162.235 118.517 164.275 119.445C164.275 119.445 161.911 124.962 157.46 124.22C153.055 123.478 152.638 124.638 151.386 125.287C150.134 125.936 147.074 126.585 143.967 125.148C140.907 123.71 138.914 122.227 136.781 121.809C132.793 121.067 129.965 120.604 129.223 118.054C129.223 118.054 133.767 114.576 136.085 111.099C138.404 107.622 146.239 103.078 148.65 103.495Z" fill="#2D334A"/>
<path d="M143.967 123.756C143.967 123.756 154.075 120.604 155.558 114.854C157.552 107.158 147.63 100.574 141.927 104.422C138.079 107.065 137.337 111.006 137.661 111.933C137.986 112.814 143.967 123.756 143.967 123.756Z" fill="#2D334A"/>
<path d="M146.518 117.544C144.617 122.273 139.748 124.777 136.827 123.617C133.953 122.458 134.092 118.054 136.039 113.324C137.94 108.595 141.279 107.158 144.2 108.317C147.121 109.476 148.419 112.814 146.518 117.544Z" fill="#DB957F"/>
<path d="M135.529 190.198C135.529 190.198 130.568 189.641 130.614 188.668L135.529 167.062L138.45 149.35L141 164.187L135.529 190.198Z" fill="#2D334A"/>
<path d="M104.65 129.552C105.578 128.718 106.088 127.466 105.949 126.214C105.67 122.968 104.929 116.895 103.306 115.735C101.08 114.113 100.431 124.591 104.094 130.062L104.65 129.552Z" fill="#DB957F"/>
<path d="M105.949 126.677C110.863 132.334 119.719 146.29 121.296 150.787C122.594 154.543 120.322 155.238 120.229 155.331C119.256 156.027 117.03 155.47 116.288 154.265L102.889 128.625L105.949 126.677Z" fill="#2D334A"/>
<path d="M139.934 126.863C143.411 124.545 145.219 127.837 145.312 127.883C146.332 128.718 146.147 131.175 145.08 132.288L120.229 155.331C119.858 155.748 119.116 155.099 118.698 154.775C118.559 154.636 118.42 154.497 118.374 154.311C117.632 153.152 117.725 151.436 118.374 150.324C121.712 144.343 135.436 129.877 139.934 126.863Z" fill="#2D334A"/>
<path d="M158.712 193.072C159.361 193.304 159.036 179.626 157.46 169.843C157.831 161.359 155.559 141.143 153.612 135.023C151.154 127.327 147.352 123.107 140.908 126.167C138.914 127.141 136.967 132.798 136.132 138.825C135.298 144.853 134.092 143.647 137.384 152.456C138.543 155.609 135.576 176.891 134.138 182.501C133.721 184.124 133.118 189.595 132.284 191.31C133.443 192.145 134.556 192.748 135.854 193.211C144.756 196.503 149.856 190.198 158.712 193.072Z" fill="#B1B4BC"/>
<path d="M150.087 127.141C150.087 127.141 147.723 130.897 142.53 131.917C142.53 131.917 148.14 181.806 146.517 187.787C146.517 187.787 157.181 187.926 159.453 188.668C159.453 188.668 158.016 155.656 157.089 149.489C156.208 143.323 154.028 131.639 150.087 127.141Z" fill="#2D334A"/>
<path d="M153.426 132.427C149.995 129.923 148.094 133.168 148.001 133.215C146.935 134.003 147.12 136.553 148.14 137.666L172.806 162.239C173.177 162.657 173.919 162.054 174.383 161.729C174.522 161.59 174.661 161.451 174.707 161.312C175.495 160.199 175.403 158.437 174.754 157.232C171.508 151.019 157.923 135.719 153.426 132.427Z" fill="#2D334A"/>
<path d="M169.144 189.456C170.349 189.78 171.369 190.661 171.833 191.82C173.085 194.834 175.217 200.583 174.29 202.345C173.038 204.803 167.66 195.808 168.402 189.27L169.144 189.456Z" fill="#DB957F"/>
<path d="M171.508 190.661C173.595 182.733 175.681 164.604 175.125 159.272C174.661 154.867 172.157 155.053 172.065 155.006C170.813 154.682 168.958 156.166 168.819 157.742L167.753 189.873L171.508 190.661Z" fill="#2D334A"/>
<path d="M147.398 115.596L141.046 115.133C141 116.014 140.536 124.266 140.953 127.373C141.231 128.347 142.808 128.718 144.523 128.254C146.053 127.837 147.166 126.863 147.166 125.982C146.934 124.174 147.212 118.656 147.398 115.596Z" fill="#DB957F"/>
<path d="M140.072 106.694C140.072 106.694 140.86 114.391 146.841 117.173C149.948 118.61 151.385 113.649 151.385 113.649L148.603 108.595C148.603 108.595 146.192 106.323 144.199 106.37C144.106 106.416 140.072 106.694 140.072 106.694Z" fill="#2D334A"/>
<path d="M148.975 119.073C148.279 120.14 146.285 120.743 145.544 120.233C144.802 119.723 145.173 118.749 145.868 117.683C146.564 116.616 147.862 116.06 148.65 116.616C149.392 117.126 149.67 118.007 148.975 119.073Z" fill="#DB957F"/>
</svg>
