<svg width="185" height="326" viewBox="0 0 185 326" fill="none" xmlns="http://www.w3.org/2000/svg">
<g clip-path="url(#clip0_73_211)">
<path d="M64.2749 146.307C62.881 147.108 61.1884 147.158 59.7446 146.507C55.9611 144.855 48.9914 141.449 48.2446 139.046C47.249 135.691 59.9935 139.196 65.1212 145.856L64.2749 146.307Z" fill="#FADFCF"/>
<path d="M61.2378 147.158C70.4477 149.512 91.2573 151.615 97.2313 150.864C102.21 150.213 101.712 147.208 101.762 147.058C102.011 145.556 100.119 143.302 98.2768 143.202L61.6858 142.601L61.2378 147.158Z" fill="#99B9C5"/>
<path d="M131.732 102.291C127.152 99.0862 124.911 103.393 124.812 103.443C123.517 104.494 123.916 107.799 125.31 109.251L158.665 140.598C159.162 141.149 160.058 140.348 160.656 139.897C160.855 139.747 161.004 139.547 161.054 139.346C161.95 137.844 161.751 135.591 160.855 134.038C156.225 126.077 137.755 106.447 131.732 102.291Z" fill="#99B9C5"/>
<path d="M106.641 237.743C105.944 235.189 104.898 233.787 102.758 233.337C100.418 232.836 98.1278 234.438 97.7295 236.792L86.6775 303.141C86.4784 304.193 87.1754 305.194 88.2208 305.394C89.2663 305.595 90.262 304.944 90.5109 303.942L91.1581 301.138C103.952 256.772 108.383 246.807 106.641 237.743Z" fill="#F5D1BC"/>
<path d="M118.24 177.603C117.195 169.642 113.113 167.939 110.225 167.839C110.026 167.789 109.827 167.739 109.628 167.689C107.238 167.338 105.048 169.041 104.799 171.444L97.2316 238.294C97.132 239.346 97.829 240.297 98.8745 240.447C99.223 240.497 99.5714 240.447 99.8701 240.347C102.31 239.897 104.351 238.144 105.097 235.69C109.03 223.071 119.584 187.969 118.24 177.603Z" fill="#D9AD93"/>
<path d="M88.3707 303.442C86.927 303.442 85.6824 303.241 84.9356 302.891C79.9075 303.592 69.7019 305.945 70.0006 308.499C70.1001 309.451 90.0633 308.8 91.4075 308.649C92.4032 308.549 92.0049 305.645 91.6564 303.942C91.5568 303.442 91.1088 303.141 90.6109 303.241C90.0135 303.392 89.217 303.442 88.3707 303.442Z" fill="#555A6C"/>
<path d="M123.119 165.285C123.119 165.285 118.788 198.335 106.89 234.589C106.89 234.589 112.814 248.51 93.8466 293.928H86.7275C86.7275 293.928 96.6345 236.191 97.0327 231.384C97.431 226.627 103.754 166.086 104.948 162.882L123.119 165.285Z" fill="#2D334A"/>
<path d="M140.792 236.842C139.249 234.739 137.755 233.788 135.565 234.138C133.225 234.539 131.632 236.842 132.13 239.196L145.671 305.094C145.87 306.146 146.866 306.797 147.911 306.647C148.957 306.446 149.654 305.495 149.504 304.443L149.106 301.539C145.123 255.57 145.671 244.654 140.792 236.842Z" fill="#F5D1BC"/>
<path d="M129.989 176.602C126.156 169.542 121.775 169.441 119.037 170.393C118.838 170.393 118.638 170.443 118.439 170.493C116.099 171.044 114.656 173.397 115.253 175.751L132.229 240.848C132.478 241.85 133.524 242.501 134.569 242.25C134.918 242.15 135.216 242 135.465 241.8C137.556 240.498 138.801 238.094 138.651 235.54C137.755 222.27 134.967 185.766 129.989 176.602Z" fill="#D9AD93"/>
<path d="M130.139 163.282C130.139 163.282 137.955 195.68 139.896 233.787C139.896 233.787 150.451 244.604 149.057 293.877L142.435 296.481C142.435 296.481 130.886 239.045 129.542 234.438C128.197 229.832 112.366 171.094 112.316 167.689L130.139 163.282Z" fill="#2D334A"/>
<path d="M119.535 108.851C120.531 103.543 115.801 103.092 115.702 103.042C114.208 102.241 111.42 103.793 110.673 105.596L95.9873 147.058C95.6886 147.709 97.1821 150.263 97.8293 150.613C98.0284 150.713 98.2773 150.763 98.5262 150.763C100.219 151.014 101.961 148.109 102.808 146.657C107.089 139.446 118.241 115.711 119.535 108.851Z" fill="#99B9C5"/>
<path d="M132.18 157.473C132.279 155.771 132.429 154.068 132.528 152.366C132.578 151.264 132.628 150.112 132.678 149.011C132.827 146.507 132.926 144.003 133.026 141.55C133.076 140.398 133.126 139.196 133.175 138.095C133.275 135.441 133.374 132.486 133.374 129.982C133.374 128.881 133.474 127.729 133.424 126.978C133.325 122.171 133.424 117.414 133.026 112.907C132.777 110.253 133.076 109.051 132.18 106.347C129.541 98.335 122.82 95.3806 115.353 100.188C114.955 100.438 114.307 100.939 114.009 101.239C111.121 104.494 108.831 106.347 109.229 111.455C109.678 117.063 108.284 124.925 107.387 131.034C107.338 131.435 107.188 132.837 107.089 133.688C106.939 134.84 106.79 136.342 106.591 137.744C106.342 139.697 106.093 141.9 105.894 144.003C105.745 145.255 105.595 146.707 105.446 148.009C105.147 150.363 104.898 152.867 104.6 155.27C104.5 155.921 104.45 156.622 104.351 157.323C104.301 157.824 104.201 158.325 104.152 158.876C104.002 160.077 103.803 161.379 103.654 162.531C103.504 163.583 103.305 164.484 103.106 165.536C102.857 166.888 102.558 168.24 102.26 169.592C105.247 170.193 108.234 170.193 111.221 169.642C116.199 168.74 120.978 167.238 126.056 167.488C127.749 167.539 129.342 168.039 130.985 168.39C131.383 165.836 131.682 163.232 131.931 160.628C132.03 159.577 132.13 158.525 132.18 157.473Z" fill="#99B9C5"/>
<path d="M108.483 93.4278C108.483 93.4278 108.284 90.2731 110.374 88.1198C112.465 85.9666 112.465 89.1714 112.465 89.1714L108.483 93.4278Z" fill="#2D334A"/>
<path d="M127.948 92.6262C127.749 92.8766 124.165 97.3833 123.269 97.183C122.024 96.9327 123.667 93.0268 123.667 93.0268L127.948 92.6262Z" fill="#2D334A"/>
<path d="M114.158 81.009C114.158 81.009 113.76 78.0545 115.303 76.5022C116.797 75.05 119.037 73.698 125.36 77.1532C126.256 77.6539 126.704 78.7055 126.355 79.707L125.459 82.5112L114.158 81.009Z" fill="#2D334A"/>
<path d="M125.309 90.1223C123.418 93.928 121.626 96.9826 118.539 97.884C117.444 98.1844 116.199 98.3346 114.805 98.1343C113.959 97.9841 113.063 97.6837 112.167 97.1829C109.827 95.8309 108.98 94.1283 109.08 92.0252C109.18 89.6717 110.474 86.8174 112.067 83.6126C115.004 77.6036 119.435 76.0012 123.119 77.8039C126.753 79.5565 128.247 84.1134 125.309 90.1223Z" fill="#F5D1BC"/>
<path d="M126.355 89.1212L119.435 88.0195C119.286 88.971 118.041 98.0345 118.191 101.49C118.39 102.541 120.082 103.142 121.974 102.792C123.667 102.491 124.961 101.54 125.061 100.538C125.011 98.4852 125.857 92.4261 126.355 89.1212Z" fill="#F5D1BC"/>
<path d="M127.649 93.0271C127.649 93.0271 125.807 92.977 124.911 91.0241C123.717 88.5204 123.418 83.7632 123.617 81.7102C123.965 78.1048 125.21 77.554 125.21 77.554C125.21 77.554 131.433 80.1578 132.08 82.7617C133.076 86.6175 127.649 93.0271 127.649 93.0271Z" fill="#2D334A"/>
<path d="M124.563 86.1665L120.281 94.9296C119.833 95.881 118.887 96.4319 117.842 96.3818L116.647 96.3317C115.9 96.2816 115.403 95.5806 115.602 94.8795L116.1 92.9266C116.199 92.4759 116 92.0253 115.652 91.825L111.868 89.5716C111.47 89.3212 110.922 89.4214 110.623 89.7719L109.279 91.2241C107.985 92.6762 108.234 94.9296 109.827 96.0313L112.067 97.5335C112.565 97.834 113.063 98.0843 113.66 98.1344C113.71 98.1344 113.76 98.1344 113.81 98.1344H113.909L114.805 98.1845L117.792 98.3347C119.584 98.4349 121.277 97.4334 122.074 95.7809L126.355 87.0178L124.563 86.1665Z" fill="#2D334A"/>
<path d="M127.899 91.5747C127.252 92.8766 125.161 93.9282 124.215 93.4775C123.269 93.0269 123.568 91.8251 124.165 90.5231C124.812 89.2212 126.156 88.3699 127.102 88.8206C128.048 89.3213 128.546 90.2727 127.899 91.5747Z" fill="#F5D1BC"/>
<path d="M124.663 80.5583L120.78 78.7055C119.485 78.0545 117.992 77.9544 116.598 78.3049L114.706 78.8056L118.241 76.0515L121.925 76.402L125.708 78.6053L124.663 80.5583Z" fill="#2D334A"/>
<path d="M117.643 105.345C115.104 110.353 114.009 114.609 114.407 120.418C114.806 126.227 112.914 133.588 109.927 138.745C110.823 140.097 111.669 141.349 112.565 142.601C114.357 141.9 116.05 141.049 117.793 140.248C119.485 133.538 119.635 127.529 118.39 120.418C117.693 116.562 118.44 110.153 119.485 105.946C118.888 105.596 118.29 105.546 117.643 105.345Z" fill="#2D334A"/>
<path d="M134.569 163.883C135.465 165.235 135.714 166.887 135.216 168.44C133.922 172.396 131.283 179.707 128.943 180.658C125.707 182.01 127.948 168.84 134.071 163.132L134.569 163.883Z" fill="#F5D1BC"/>
<path d="M135.615 166.687C143.182 160.878 157.768 145.806 160.855 140.648C163.444 136.342 160.805 134.839 160.706 134.739C159.66 133.588 156.773 133.688 155.528 135.04L132.329 163.532L135.615 166.687Z" fill="#99B9C5"/>
<path d="M148.309 303.442C146.865 303.442 145.621 303.241 144.874 302.891C139.846 303.592 129.64 305.945 129.939 308.499C130.039 309.451 150.002 308.8 151.346 308.649C152.342 308.549 151.943 305.645 151.595 303.942C151.495 303.442 151.047 303.141 150.549 303.241C149.952 303.392 149.155 303.442 148.309 303.442Z" fill="#555A6C"/>
<path d="M34.2442 144.188L104.318 142.606L104.221 138.251L34.147 139.833L34.2442 144.188Z" fill="#383E56"/>
<path d="M34.1558 140.248L92.8009 138.896L82.645 99.5869L24 100.939L34.1558 140.248Z" fill="#383E56"/>
<path d="M57.7533 121.37L57.9026 124.024C59.2966 123.923 60.4416 122.722 60.3918 121.32C60.342 119.867 59.1472 118.666 57.6537 118.716C56.21 118.766 55.0152 119.967 55.065 121.47L57.7533 121.37Z" fill="#9ABAC6"/>
<path d="M64.2749 146.307C62.881 147.108 61.1884 147.158 59.7446 146.507C55.9611 144.855 48.9914 141.449 48.2446 139.046C47.249 135.691 59.9935 139.196 65.1212 145.856L64.2749 146.307Z" fill="#FADFCF"/>
<path d="M61.2378 147.158C70.4477 149.512 91.2573 151.615 97.2313 150.864C102.21 150.213 101.712 147.208 101.762 147.058C102.011 145.556 100.119 143.302 98.2768 143.202L61.6858 142.601L61.2378 147.158Z" fill="#99B9C5"/>
</g>
<defs>
<clipPath id="clip0_73_211">
<rect width="138" height="234" fill="white" transform="translate(24 75)"/>
</clipPath>
</defs>
</svg>
